<svg xmlns="http://www.w3.org/2000/svg" xmlns:xlink="http://www.w3.org/1999/xlink" width="150" zoomAndPan="magnify" viewBox="0 0 112.5 112.499997" height="150" preserveAspectRatio="xMidYMid meet" version="1.0"><defs><clipPath id="0f60d11ba7"><path d="M 16.378906 13.925781 L 96.921875 13.925781 L 96.921875 94.472656 L 16.378906 94.472656 Z M 16.378906 13.925781 " clip-rule="nonzero"/></clipPath><clipPath id="d0686e255a"><path d="M 56.644531 13.925781 C 34.402344 13.925781 16.378906 31.953125 16.378906 54.191406 C 16.378906 76.433594 34.402344 94.472656 56.644531 94.472656 C 78.882812 94.472656 96.921875 76.433594 96.921875 54.191406 C 96.921875 31.953125 78.882812 13.925781 56.644531 13.925781 Z M 56.644531 13.925781 " clip-rule="nonzero"/></clipPath><clipPath id="4ad661f8b3"><path d="M 43.925781 27.257812 L 68.308594 27.257812 L 68.308594 81.449219 L 43.925781 81.449219 Z M 43.925781 27.257812 " clip-rule="nonzero"/></clipPath></defs><g clip-path="url(#0f60d11ba7)"><g clip-path="url(#d0686e255a)"><path fill="#ffffff" d="M 16.378906 13.925781 L 96.921875 13.925781 L 96.921875 94.472656 L 16.378906 94.472656 Z M 16.378906 13.925781 " fill-opacity="1" fill-rule="nonzero"/></g></g><g clip-path="url(#4ad661f8b3)"><path fill="#a4ac58" d="M 62.695312 36.285156 L 68.308594 36.285156 L 68.308594 27.386719 L 61.132812 27.386719 L 61.132812 27.417969 C 51.683594 27.78125 49.730469 33.339844 49.570312 39.199219 L 49.554688 39.199219 L 49.554688 45.371094 L 43.925781 45.371094 L 43.925781 54.265625 L 49.554688 54.265625 L 49.554688 81.332031 L 59.648438 81.332031 L 59.648438 54.265625 L 66.878906 54.265625 L 68.308594 45.371094 L 59.648438 45.371094 L 59.648438 39.84375 C 59.648438 37.875 60.902344 36.285156 62.695312 36.285156 Z M 62.695312 36.285156 " fill-opacity="1" fill-rule="nonzero"/></g></svg>