<svg xmlns="http://www.w3.org/2000/svg" xmlns:xlink="http://www.w3.org/1999/xlink" width="150" zoomAndPan="magnify" viewBox="0 0 112.5 112.499997" height="150" preserveAspectRatio="xMidYMid meet" version="1.0"><defs><clipPath id="d940783ea4"><path d="M 15.734375 13.925781 L 97.023438 13.925781 L 97.023438 95.214844 L 15.734375 95.214844 Z M 15.734375 13.925781 " clip-rule="nonzero"/></clipPath></defs><g clip-path="url(#d940783ea4)"><path fill="#a4ac58" d="M 56.378906 13.925781 C 33.964844 13.925781 15.734375 32.15625 15.734375 54.570312 C 15.734375 76.988281 33.964844 95.214844 56.378906 95.214844 C 78.78125 95.214844 97.023438 76.988281 97.023438 54.570312 C 97.023438 32.15625 78.78125 13.925781 56.378906 13.925781 Z M 82.734375 63.101562 C 82.734375 72.933594 74.742188 80.925781 64.910156 80.925781 L 47.835938 80.925781 C 38.019531 80.925781 30.011719 72.933594 30.011719 63.101562 L 30.011719 46.027344 C 30.011719 36.210938 38.019531 28.203125 47.835938 28.203125 L 64.910156 28.203125 C 74.742188 28.203125 82.734375 36.210938 82.734375 46.027344 Z M 82.734375 63.101562 " fill-opacity="1" fill-rule="nonzero"/></g><path fill="#a4ac58" d="M 68.410156 37.011719 L 73.878906 37.011719 L 73.878906 42.480469 L 68.410156 42.480469 Z M 68.410156 37.011719 " fill-opacity="1" fill-rule="nonzero"/><path fill="#a4ac58" d="M 56.378906 64.300781 C 61.746094 64.300781 66.109375 59.9375 66.109375 54.570312 C 66.109375 52.574219 65.507812 50.648438 64.371094 49 C 62.550781 46.390625 59.558594 44.828125 56.378906 44.828125 C 53.199219 44.828125 50.210938 46.390625 48.386719 49.015625 C 47.238281 50.648438 46.636719 52.574219 46.636719 54.570312 C 46.636719 59.9375 51.011719 64.300781 56.378906 64.300781 Z M 56.378906 64.300781 " fill-opacity="1" fill-rule="nonzero"/><path fill="#a4ac58" d="M 69.722656 54.570312 C 69.722656 61.921875 63.730469 67.914062 56.378906 67.914062 C 49.015625 67.914062 43.023438 61.921875 43.023438 54.570312 C 43.023438 52.910156 43.328125 51.304688 43.910156 49.789062 L 33.628906 49.789062 L 33.628906 63.101562 C 33.628906 70.933594 40.003906 77.308594 47.835938 77.308594 L 64.910156 77.308594 C 72.742188 77.308594 79.117188 70.933594 79.117188 63.101562 L 79.117188 49.789062 L 68.835938 49.789062 C 69.417969 51.304688 69.722656 52.910156 69.722656 54.570312 Z M 69.722656 54.570312 " fill-opacity="1" fill-rule="nonzero"/></svg>