<svg xmlns="http://www.w3.org/2000/svg" xmlns:xlink="http://www.w3.org/1999/xlink" width="150" zoomAndPan="magnify" viewBox="0 0 112.5 112.499997" height="150" preserveAspectRatio="xMidYMid meet" version="1.0"><defs><clipPath id="7322e70a3c"><path d="M 15.179688 14.03125 L 96.484375 14.03125 L 96.484375 95.320312 L 15.179688 95.320312 Z M 15.179688 14.03125 " clip-rule="nonzero"/></clipPath></defs><g clip-path="url(#7322e70a3c)"><path fill="#ffffff" d="M 96.777344 54.820312 C 96.777344 77.351562 78.503906 95.609375 55.972656 95.609375 C 33.441406 95.609375 15.179688 77.351562 15.179688 54.820312 C 15.179688 32.289062 33.441406 14.03125 55.972656 14.03125 C 78.503906 14.03125 96.777344 32.289062 96.777344 54.820312 Z M 96.777344 54.820312 " fill-opacity="1" fill-rule="nonzero"/></g><path fill="#000000" d="M 55.988281 29.5625 C 42.21875 29.5625 31.0625 40.71875 31.0625 54.46875 C 31.0625 64.679688 37.203125 73.441406 45.980469 77.292969 C 45.910156 75.558594 45.96875 73.472656 46.40625 71.578125 C 46.886719 69.550781 49.613281 58 49.613281 58 C 49.613281 58 48.824219 56.410156 48.824219 54.0625 C 48.824219 50.371094 50.96875 47.601562 53.625 47.601562 C 55.882812 47.601562 56.992188 49.308594 56.992188 51.347656 C 56.992188 53.625 55.535156 57.035156 54.789062 60.1875 C 54.164062 62.828125 56.117188 64.984375 58.714844 64.984375 C 63.4375 64.984375 66.617188 58.933594 66.617188 51.742188 C 66.617188 46.273438 62.941406 42.191406 56.25 42.191406 C 48.695312 42.191406 43.984375 47.835938 43.984375 54.121094 C 43.984375 56.292969 44.625 57.824219 45.632812 59.003906 C 46.085938 59.558594 46.15625 59.777344 45.980469 60.40625 C 45.867188 60.859375 45.589844 61.964844 45.472656 62.402344 C 45.3125 63.03125 44.800781 63.265625 44.230469 63.015625 C 40.746094 61.601562 39.128906 57.792969 39.128906 53.507812 C 39.128906 46.433594 45.09375 37.945312 56.933594 37.945312 C 66.441406 37.945312 72.714844 44.828125 72.714844 52.210938 C 72.714844 61.996094 67.273438 69.285156 59.269531 69.285156 C 56.570312 69.285156 54.046875 67.828125 53.1875 66.179688 C 53.1875 66.179688 51.726562 71.925781 51.421875 73.035156 C 50.898438 74.960938 49.863281 76.871094 48.914062 78.371094 C 51.160156 79.027344 53.523438 79.394531 55.972656 79.394531 C 69.738281 79.394531 80.894531 68.238281 80.894531 54.46875 C 80.894531 40.71875 69.738281 29.5625 55.988281 29.5625 Z M 55.988281 29.5625 " fill-opacity="1" fill-rule="nonzero"/></svg>