<svg xmlns="http://www.w3.org/2000/svg" xmlns:xlink="http://www.w3.org/1999/xlink" width="150" zoomAndPan="magnify" viewBox="0 0 112.5 112.499997" height="150" preserveAspectRatio="xMidYMid meet" version="1.0"><defs><clipPath id="482e61407e"><path d="M 9.296875 9.296875 L 102.632812 9.296875 L 102.632812 102.632812 L 9.296875 102.632812 Z M 9.296875 9.296875 " clip-rule="nonzero"/></clipPath></defs><g clip-path="url(#482e61407e)"><path fill="#ffffff" d="M 102.695312 55.992188 C 102.695312 81.785156 81.785156 102.695312 55.992188 102.695312 C 30.199219 102.695312 9.292969 81.785156 9.292969 55.992188 C 9.292969 30.199219 30.199219 9.292969 55.992188 9.292969 C 81.785156 9.292969 102.695312 30.199219 102.695312 55.992188 Z M 102.695312 55.992188 " fill-opacity="1" fill-rule="nonzero"/></g><path fill="#000000" d="M 38.359375 32.730469 L 74.566406 32.730469 C 78.007812 32.730469 80.816406 35.542969 80.816406 38.984375 L 80.816406 75.191406 C 80.816406 78.628906 78.007812 81.441406 74.566406 81.441406 L 38.359375 81.441406 C 34.921875 81.441406 32.105469 78.628906 32.105469 75.191406 L 32.105469 38.984375 C 32.105469 35.542969 34.921875 32.730469 38.359375 32.730469 Z M 67.59375 38.140625 C 66.382812 38.140625 65.398438 39.128906 65.398438 40.335938 L 65.398438 45.582031 C 65.398438 46.792969 66.382812 47.777344 67.59375 47.777344 L 73.097656 47.777344 C 74.300781 47.777344 75.289062 46.792969 75.289062 45.582031 L 75.289062 40.335938 C 75.289062 39.128906 74.300781 38.140625 73.097656 38.140625 Z M 75.3125 53.328125 L 71.023438 53.328125 C 71.433594 54.65625 71.652344 56.054688 71.652344 57.511719 C 71.652344 65.613281 64.871094 72.179688 56.507812 72.179688 C 48.148438 72.179688 41.367188 65.613281 41.367188 57.511719 C 41.367188 56.054688 41.589844 54.65625 41.992188 53.328125 L 37.519531 53.328125 L 37.519531 73.90625 C 37.519531 74.972656 38.390625 75.839844 39.457031 75.839844 L 73.375 75.839844 C 74.441406 75.839844 75.3125 74.972656 75.3125 73.90625 Z M 56.507812 47.5 C 51.105469 47.5 46.726562 51.742188 46.726562 56.980469 C 46.726562 62.214844 51.105469 66.460938 56.507812 66.460938 C 61.910156 66.460938 66.292969 62.214844 66.292969 56.980469 C 66.292969 51.742188 61.910156 47.5 56.507812 47.5 Z M 56.507812 47.5 " fill-opacity="1" fill-rule="nonzero"/></svg>